# xmcd
#
# Track frame offsets:
#	150
#	15490
#	30785
#	42112
#	55012
#	68742
#	88020
#	105427
#	120712
#	137162
#	152685
#
# Disc length: 2247 seconds
#
# Revision: 3
# Processed by: cddbd v1.5.1PL0 Copyright (c) Steve Scherf et al.
# Submitted via: audiograbber 1.83.01
#
DISCID=7b08c50b
DTITLE=Tracy Byrd - Keepers - Greatest Hits
DYEAR=1999
DGENRE=Country
TTITLE0=When Mama Ain't Happy
TTITLE1=Someone To Give My Love To
TTITLE2=Holdin' Heaven
TTITLE3=Lifestyles Of The Not So Rich And Famous
TTITLE4=Watermelon Crawl
TTITLE5=The Keeper Of The Stars (Radio Version)
TTITLE6=Love Lessons
TTITLE7=Heaven In My Woman's Eyes
TTITLE8=Big Love
TTITLE9=Don't Take Her She's All I Got
TTITLE10=I'm From The Country
EXTD=
EXTT0=
EXTT1=
EXTT2=
EXTT3=
EXTT4=
EXTT5=
EXTT6=
EXTT7=
EXTT8=
EXTT9=
EXTT10=
PLAYORDER=
